<svg xmlns="http://www.w3.org/2000/svg" viewBox="0 0 32 32">
  <defs>
    <linearGradient id="g" x1="0" y1="0" x2="1" y2="1">
      <stop offset="0%" stop-color="#b794ff"/>
      <stop offset="100%" stop-color="#6a8dff"/>
    </linearGradient>
  </defs>
  <rect width="32" height="32" rx="7" fill="#0d0d16"/>
  <path d="M16 5.5c-5 0-8.5 3.6-8.5 8.5v12.2c0 1 1.1 1.6 1.9 1l1.6-1.2c.4-.3 1-.3 1.4 0l1.6 1.2c.4.3 1 .3 1.4 0l1.6-1.2c.4-.3 1-.3 1.4 0l1.6 1.2c.8.6 1.9 0 1.9-1V14c0-4.9-3.5-8.5-8.4-8.5Z" fill="url(#g)"/>
  <circle cx="12.5" cy="15" r="1.4" fill="#0d0d16"/>
  <circle cx="19.5" cy="15" r="1.4" fill="#0d0d16"/>
</svg>
